<svg width="129" height="128" viewBox="0 0 129 128" fill="none" xmlns="http://www.w3.org/2000/svg">
<path d="M64.7158 0C29.477 0 0.71582 28.7612 0.71582 64C0.71582 99.2389 29.477 128 64.7158 128C99.9547 128 128.716 99.2389 128.716 64C128.716 28.7612 99.9547 0 64.7158 0ZM18.5944 64C18.5944 50.7855 24.2948 38.6073 33.3636 30.3158C36.9911 26.9474 43.2098 27.9838 45.8008 32.3887L61.8656 60.1134C63.4203 62.7045 63.4203 65.8138 61.8656 68.4049L45.8008 96.1296C43.2098 100.794 36.9911 101.571 33.1045 97.9433C24.2948 89.1336 18.5944 77.2146 18.5944 64ZM83.6308 95.6113L67.566 67.8867C66.0114 65.2956 66.0114 62.1862 67.566 59.5951L83.6308 31.8704C86.2219 27.4656 92.1814 26.4292 96.068 29.7976C105.137 38.0891 110.837 50.2672 110.837 63.4818C110.837 76.6964 105.137 88.8745 96.068 97.166C92.1814 101.312 86.2219 100.275 83.6308 95.6113Z" fill="#201B21"/>
</svg>
