<svg width="10" height="9" viewBox="0 0 10 9" fill="none" xmlns="http://www.w3.org/2000/svg">
<path d="M2.27997 0.22009C2.1378 0.0876104 1.94975 0.0154875 1.75545 0.0189157C1.56115 0.0223439 1.37576 0.101056 1.23835 0.238469C1.10094 0.375882 1.02222 0.561267 1.0188 0.755568C1.01537 0.949869 1.08749 1.13792 1.21997 1.28009L3.93997 4.00009L1.21997 6.72009C1.14628 6.78875 1.08718 6.87155 1.04619 6.96355C1.0052 7.05555 0.983156 7.15487 0.981379 7.25557C0.979602 7.35627 0.998127 7.4563 1.03585 7.54969C1.07357 7.64308 1.12971 7.72791 1.20093 7.79913C1.27215 7.87035 1.35698 7.92649 1.45037 7.96421C1.54376 8.00193 1.64379 8.02046 1.74449 8.01868C1.8452 8.01691 1.94451 7.99486 2.03651 7.95387C2.12851 7.91288 2.21131 7.85378 2.27997 7.78009L4.99997 5.06009L7.71997 7.78009C7.78863 7.85378 7.87143 7.91288 7.96343 7.95387C8.05543 7.99486 8.15475 8.01691 8.25545 8.01868C8.35615 8.02046 8.45618 8.00193 8.54957 7.96421C8.64296 7.92649 8.72779 7.87035 8.79901 7.79913C8.87023 7.72791 8.92637 7.64308 8.96409 7.54969C9.00181 7.4563 9.02034 7.35627 9.01856 7.25557C9.01679 7.15487 8.99474 7.05555 8.95375 6.96355C8.91276 6.87155 8.85366 6.78875 8.77997 6.72009L6.05997 4.00009L8.77997 1.28009C8.91245 1.13792 8.98457 0.949869 8.98115 0.755568C8.97772 0.561267 8.899 0.375882 8.76159 0.238469C8.62418 0.101056 8.43879 0.0223439 8.24449 0.0189157C8.05019 0.0154875 7.86215 0.0876104 7.71997 0.22009L4.99997 2.94009L2.27997 0.22009Z" fill="#788194"/>
</svg>
