<svg width="17" height="16" viewBox="0 0 17 16" fill="none" xmlns="http://www.w3.org/2000/svg">
<path d="M9.25009 2.75C9.25009 2.55109 9.17107 2.36032 9.03042 2.21967C8.88977 2.07902 8.699 2 8.50009 2C8.30118 2 8.11041 2.07902 7.96976 2.21967C7.82911 2.36032 7.75009 2.55109 7.75009 2.75V8.44L5.53009 6.22C5.38792 6.08752 5.19987 6.0154 5.00557 6.01883C4.81127 6.02225 4.62588 6.10097 4.48847 6.23838C4.35106 6.37579 4.27234 6.56118 4.26892 6.75548C4.26549 6.94978 4.33761 7.13783 4.47009 7.28L7.97009 10.78C8.11072 10.9205 8.30134 10.9993 8.50009 10.9993C8.69884 10.9993 8.88946 10.9205 9.03009 10.78L12.5301 7.28C12.6626 7.13783 12.7347 6.94978 12.7313 6.75548C12.7278 6.56118 12.6491 6.37579 12.5117 6.23838C12.3743 6.10097 12.1889 6.02225 11.9946 6.01883C11.8003 6.0154 11.6123 6.08752 11.4701 6.22L9.25009 8.44V2.75Z" fill="#ffffff"/>
<path d="M4 9.75C4 9.55109 3.92098 9.36032 3.78033 9.21967C3.63968 9.07902 3.44891 9 3.25 9C3.05109 9 2.86032 9.07902 2.71967 9.21967C2.57902 9.36032 2.5 9.55109 2.5 9.75V11.25C2.5 11.9793 2.78973 12.6788 3.30546 13.1945C3.82118 13.7103 4.52065 14 5.25 14H11.75C12.4793 14 13.1788 13.7103 13.6945 13.1945C14.2103 12.6788 14.5 11.9793 14.5 11.25V9.75C14.5 9.55109 14.421 9.36032 14.2803 9.21967C14.1397 9.07902 13.9489 9 13.75 9C13.5511 9 13.3603 9.07902 13.2197 9.21967C13.079 9.36032 13 9.55109 13 9.75V11.25C13 11.94 12.44 12.5 11.75 12.5H5.25C4.56 12.5 4 11.94 4 11.25V9.75Z" fill="#ffffff"/>
</svg>
